<svg xmlns="http://www.w3.org/2000/svg" xmlns:xlink="http://www.w3.org/1999/xlink" width="154.608" height="67.877" viewBox="0 0 154.608 67.877"><defs><style>.a{fill:#0c2758;}.b{fill:#00b4e1;}.c{fill:#002d6e;}.d{filter:url(#ac);}.e{filter:url(#aa);}.f{filter:url(#y);}.g{filter:url(#w);}.h{filter:url(#u);}.i{filter:url(#s);}.j{filter:url(#q);}.k{filter:url(#o);}.l{filter:url(#m);}.m{filter:url(#k);}.n{filter:url(#i);}.o{filter:url(#g);}.p{filter:url(#e);}.q{filter:url(#c);}.r{filter:url(#a);}</style><filter id="a" x="45.441" y="0.626" width="31.359" height="35.413" filterUnits="userSpaceOnUse"><feOffset dy="7" input="SourceAlpha"/><feGaussianBlur stdDeviation="3" result="b"/><feFlood flood-color="#002d6e" flood-opacity="0"/><feComposite operator="in" in2="b"/><feComposite in="SourceGraphic"/></filter><filter id="c" x="60.899" y="1.034" width="25.482" height="35.005" filterUnits="userSpaceOnUse"><feOffset dy="7" input="SourceAlpha"/><feGaussianBlur stdDeviation="3" result="d"/><feFlood flood-color="#002d6e" flood-opacity="0"/><feComposite operator="in" in2="d"/><feComposite in="SourceGraphic"/></filter><filter id="e" x="69.442" y="5.051" width="30.1" height="30.988" filterUnits="userSpaceOnUse"><feOffset dy="7" input="SourceAlpha"/><feGaussianBlur stdDeviation="3" result="f"/><feFlood flood-color="#002d6e" flood-opacity="0"/><feComposite operator="in" in2="f"/><feComposite in="SourceGraphic"/></filter><filter id="g" x="83.715" y="0" width="31.433" height="36.039" filterUnits="userSpaceOnUse"><feOffset dy="7" input="SourceAlpha"/><feGaussianBlur stdDeviation="3" result="h"/><feFlood flood-color="#002d6e" flood-opacity="0"/><feComposite operator="in" in2="h"/><feComposite in="SourceGraphic"/></filter><filter id="i" x="99.297" y="4.858" width="31.137" height="31.181" filterUnits="userSpaceOnUse"><feOffset dy="7" input="SourceAlpha"/><feGaussianBlur stdDeviation="3" result="j"/><feFlood flood-color="#002d6e" flood-opacity="0"/><feComposite operator="in" in2="j"/><feComposite in="SourceGraphic"/></filter><filter id="k" x="114.285" y="4.858" width="30.1" height="30.988" filterUnits="userSpaceOnUse"><feOffset dy="7" input="SourceAlpha"/><feGaussianBlur stdDeviation="3" result="l"/><feFlood flood-color="#002d6e" flood-opacity="0"/><feComposite operator="in" in2="l"/><feComposite in="SourceGraphic"/></filter><filter id="m" x="129.126" y="1.034" width="25.482" height="35.005" filterUnits="userSpaceOnUse"><feOffset dy="7" input="SourceAlpha"/><feGaussianBlur stdDeviation="3" result="n"/><feFlood flood-color="#002d6e" flood-opacity="0"/><feComposite operator="in" in2="n"/><feComposite in="SourceGraphic"/></filter><filter id="o" x="45.393" y="24.415" width="37.534" height="43.462" filterUnits="userSpaceOnUse"><feOffset dy="7" input="SourceAlpha"/><feGaussianBlur stdDeviation="3" result="p"/><feFlood flood-color="#002d6e" flood-opacity="0"/><feComposite operator="in" in2="p"/><feComposite in="SourceGraphic"/></filter><filter id="q" x="68.536" y="25.013" width="28.94" height="42.865" filterUnits="userSpaceOnUse"><feOffset dy="7" input="SourceAlpha"/><feGaussianBlur stdDeviation="3" result="r"/><feFlood flood-color="#002d6e" flood-opacity="0"/><feComposite operator="in" in2="r"/><feComposite in="SourceGraphic"/></filter><filter id="s" x="80.792" y="30.604" width="38.22" height="37.273" filterUnits="userSpaceOnUse"><feOffset dy="7" input="SourceAlpha"/><feGaussianBlur stdDeviation="3" result="t"/><feFlood flood-color="#002d6e" flood-opacity="0"/><feComposite operator="in" in2="t"/><feComposite in="SourceGraphic"/></filter><filter id="u" x="104.963" y="30.604" width="28.29" height="36.991" filterUnits="userSpaceOnUse"><feOffset dy="7" input="SourceAlpha"/><feGaussianBlur stdDeviation="3" result="v"/><feFlood flood-color="#002d6e" flood-opacity="0"/><feComposite operator="in" in2="v"/><feComposite in="SourceGraphic"/></filter><filter id="w" x="117.4" y="30.604" width="37.209" height="37.273" filterUnits="userSpaceOnUse"><feOffset dy="7" input="SourceAlpha"/><feGaussianBlur stdDeviation="3" result="x"/><feFlood flood-color="#002d6e" flood-opacity="0"/><feComposite operator="in" in2="x"/><feComposite in="SourceGraphic"/></filter><filter id="y" x="0" y="0.082" width="46.052" height="55.87" filterUnits="userSpaceOnUse"><feOffset dy="7" input="SourceAlpha"/><feGaussianBlur stdDeviation="3" result="z"/><feFlood flood-color="#002d6e" flood-opacity="0"/><feComposite operator="in" in2="z"/><feComposite in="SourceGraphic"/></filter><filter id="aa" x="21.841" y="11.637" width="34.702" height="55.781" filterUnits="userSpaceOnUse"><feOffset dy="7" input="SourceAlpha"/><feGaussianBlur stdDeviation="3" result="ab"/><feFlood flood-color="#002d6e" flood-opacity="0"/><feComposite operator="in" in2="ab"/><feComposite in="SourceGraphic"/></filter><filter id="ac" x="29.192" y="37.115" width="24.163" height="23.976" filterUnits="userSpaceOnUse"><feOffset dy="7" input="SourceAlpha"/><feGaussianBlur stdDeviation="3" result="ad"/><feFlood flood-color="#002d6e" flood-opacity="0"/><feComposite operator="in" in2="ad"/><feComposite in="SourceGraphic"/></filter></defs><g transform="translate(9 2)"><g transform="translate(45.393 0)"><g transform="translate(0 0)"><g class="r" transform="matrix(1, 0, 0, 1, -54.39, -2)"><path class="a" d="M317.054,59.436a3.9,3.9,0,0,0-2.086.5,1.677,1.677,0,0,0-.815,1.527,1.761,1.761,0,0,0,.815,1.563,12.507,12.507,0,0,0,3.469,1.167,9.66,9.66,0,0,1,4,1.756,4.1,4.1,0,0,1,1.346,3.331,4.369,4.369,0,0,1-1.7,3.572,6.913,6.913,0,0,1-4.469,1.371,10.654,10.654,0,0,1-7.186-2.718l1.827-2.141a8.341,8.341,0,0,0,5.432,2.213,3.781,3.781,0,0,0,2.235-.589,1.831,1.831,0,0,0,.828-1.564,1.742,1.742,0,0,0-.778-1.515,8.316,8.316,0,0,0-2.679-.986,24.5,24.5,0,0,1-2.889-.818,6.554,6.554,0,0,1-1.753-.974,4.021,4.021,0,0,1-1.531-3.463,4.177,4.177,0,0,1,1.741-3.6,7.143,7.143,0,0,1,4.309-1.263,10.584,10.584,0,0,1,3.284.529,8.666,8.666,0,0,1,2.815,1.491l-1.556,2.141a5.929,5.929,0,0,0-2.074-1.106A8.183,8.183,0,0,0,317.054,59.436Z" transform="translate(-255.98 -54.19)"/></g><g class="q" transform="matrix(1, 0, 0, 1, -54.39, -2)"><path class="a" d="M400.67,65.381v6.494a2.075,2.075,0,0,0,.494,1.455,1.778,1.778,0,0,0,1.383.541,2.378,2.378,0,0,0,1.7-.842l1.136,1.9a4.781,4.781,0,0,1-3.222,1.275,4.173,4.173,0,0,1-4.259-4.4V59.2h2.765v4.017h3.457v2.165Z" transform="translate(-328.01 -56.17)"/></g><g class="p" transform="matrix(1, 0, 0, 1, -54.39, -2)"><path class="a" d="M455.588,89.572V82.645h2.766v12.8h-2.766V93.108a4.853,4.853,0,0,1-1.84,1.852,5.354,5.354,0,0,1-6.124-.65,5.071,5.071,0,0,1-1.371-3.824V82.645h2.766v7.023q0,3.536,3.013,3.536a3.675,3.675,0,0,0,2.494-.926A3.4,3.4,0,0,0,455.588,89.572Z" transform="translate(-367.81 -75.59)"/></g><g class="o" transform="matrix(1, 0, 0, 1, -54.39, -2)"><path class="a" d="M528.88,69.374a6.456,6.456,0,0,1-1.852-4.81,6.211,6.211,0,0,1,1.9-4.762,6.4,6.4,0,0,1,4.531-1.78,5.023,5.023,0,0,1,4.235,2.165V53.163h2.766V71.01H537.7V69.085a5.17,5.17,0,0,1-4.469,2.117A5.986,5.986,0,0,1,528.88,69.374Zm.913-4.7a4.039,4.039,0,0,0,4.05,4.149,3.714,3.714,0,0,0,2.766-1.167,4.114,4.114,0,0,0,1.136-2.994,4.326,4.326,0,0,0-1.136-3.055,3.655,3.655,0,0,0-2.79-1.227,3.81,3.81,0,0,0-2.84,1.227A4.238,4.238,0,0,0,529.794,64.672Z" transform="translate(-434.31 -51.16)"/></g><g class="n" transform="matrix(1, 0, 0, 1, -54.39, -2)"><path class="a" d="M622.049,81.521a6.826,6.826,0,0,1,4.469,1.455,4.736,4.736,0,0,1,1.8,3.788l.025.048-9.581,3.92a4.309,4.309,0,0,0,3.494,1.539,4.573,4.573,0,0,0,3.643-1.684l1.63,1.756A7.548,7.548,0,0,1,622,94.7a6.907,6.907,0,0,1-4.791-1.8,6.1,6.1,0,0,1-2-4.762,6.318,6.318,0,0,1,1.037-3.6,6.4,6.4,0,0,1,2.568-2.285A7.394,7.394,0,0,1,622.049,81.521Zm-4.173,6.663a3.046,3.046,0,0,0,.025.457l7.284-3.055A3.082,3.082,0,0,0,622.2,84a4.578,4.578,0,0,0-2.976,1.106A3.766,3.766,0,0,0,617.876,88.184Z" transform="translate(-506.91 -74.66)"/></g><g class="m" transform="matrix(1, 0, 0, 1, -54.39, -2)"><path class="a" d="M702.8,87.582v6.927h-2.766v-12.8H702.8v2.333a4.855,4.855,0,0,1,1.839-1.852,5.353,5.353,0,0,1,6.124.649,5.072,5.072,0,0,1,1.37,3.824v7.841h-2.766V87.486q0-3.536-3.013-3.535a3.674,3.674,0,0,0-2.494.926A3.4,3.4,0,0,0,702.8,87.582Z" transform="translate(-576.75 -74.66)"/></g><g class="l" transform="matrix(1, 0, 0, 1, -54.39, -2)"><path class="a" d="M786.787,65.381v6.494a2.075,2.075,0,0,0,.494,1.455,1.778,1.778,0,0,0,1.383.541,2.377,2.377,0,0,0,1.7-.842l1.136,1.9a4.782,4.782,0,0,1-3.223,1.275,4.173,4.173,0,0,1-4.26-4.4V59.2h2.765v4.017h3.457v2.165Z" transform="translate(-645.9 -56.17)"/></g><g class="k" transform="matrix(1, 0, 0, 1, -54.39, -2)"><path class="a" d="M319.844,199.5a5.707,5.707,0,0,0-3.051.738,2.451,2.451,0,0,0-1.192,2.233,2.576,2.576,0,0,0,1.192,2.286,18.3,18.3,0,0,0,5.073,1.706,14.127,14.127,0,0,1,5.849,2.567,6,6,0,0,1,1.968,4.871,6.388,6.388,0,0,1-2.491,5.223,10.108,10.108,0,0,1-6.535,2,15.578,15.578,0,0,1-10.507-3.974l2.672-3.13a12.2,12.2,0,0,0,7.943,3.235,5.528,5.528,0,0,0,3.268-.862,2.677,2.677,0,0,0,1.21-2.286,2.547,2.547,0,0,0-1.138-2.216,12.153,12.153,0,0,0-3.918-1.442,35.791,35.791,0,0,1-4.224-1.2,9.59,9.59,0,0,1-2.564-1.424,5.881,5.881,0,0,1-2.238-5.064,6.107,6.107,0,0,1,2.546-5.258,10.444,10.444,0,0,1,6.3-1.846,15.476,15.476,0,0,1,4.8.774,12.668,12.668,0,0,1,4.117,2.181l-2.275,3.13a8.68,8.68,0,0,0-3.033-1.618A11.972,11.972,0,0,0,319.844,199.5Z" transform="translate(-255.76 -169.25)"/></g><g class="j" transform="matrix(1, 0, 0, 1, -54.39, -2)"><path class="a" d="M445.17,208.194v9.5a3.033,3.033,0,0,0,.722,2.128,2.6,2.6,0,0,0,2.022.791,3.476,3.476,0,0,0,2.491-1.231l1.661,2.778a6.993,6.993,0,0,1-4.712,1.864,6.1,6.1,0,0,1-6.228-6.436V199.156h4.043v5.873h5.055v3.165Z" transform="translate(-363.59 -172.14)"/></g><g class="i" transform="matrix(1, 0, 0, 1, -54.39, -2)"><path class="a" d="M527.816,248.271a10.724,10.724,0,0,1-14.443,0,9.544,9.544,0,0,1,0-13.681,10.723,10.723,0,0,1,14.443,0,9.543,9.543,0,0,1,0,13.681Zm-11.572-2.427a6.537,6.537,0,1,0-1.715-4.414A5.909,5.909,0,0,0,516.244,245.844Z" transform="translate(-420.69 -199.19)"/></g><g class="h" transform="matrix(1, 0, 0, 1, -54.39, -2)"><path class="a" d="M657.35,235.768a5.428,5.428,0,0,0-4.514,1.9,7.942,7.942,0,0,0-1.516,5.1v8.019h-4.044v-18.71h4.044v3.763a8.235,8.235,0,0,1,2.654-2.884,6.51,6.51,0,0,1,3.557-1.161l.036,3.974Z" transform="translate(-533.31 -199.19)"/></g><g class="g" transform="matrix(1, 0, 0, 1, -54.39, -2)"><path class="a" d="M727.658,231.794a9.982,9.982,0,0,1,6.536,2.128,6.924,6.924,0,0,1,2.635,5.539l.036.071-14.01,5.732a6.3,6.3,0,0,0,5.109,2.251,6.687,6.687,0,0,0,5.326-2.462l2.383,2.567a11.037,11.037,0,0,1-8.089,3.446,10.1,10.1,0,0,1-7-2.638,8.926,8.926,0,0,1-2.925-6.963,9.24,9.24,0,0,1,1.516-5.258,9.362,9.362,0,0,1,3.755-3.341A10.809,10.809,0,0,1,727.658,231.794Zm-6.1,9.742a4.362,4.362,0,0,0,.036.668l10.651-4.466a4.507,4.507,0,0,0-4.369-2.321,6.693,6.693,0,0,0-4.351,1.618A5.5,5.5,0,0,0,721.556,241.536Z" transform="translate(-591.26 -199.19)"/></g></g></g><g transform="translate(0 0.082)"><g transform="translate(0 0)"><g class="f" transform="matrix(1, 0, 0, 1, -9, -2.08)"><path class="b" d="M69.12,85.758q-6.15,0-11.869-4.812L53.259,85.6a23.325,23.325,0,0,0,15.7,5.912,20.426,20.426,0,0,0,3.7-.319v-6A9.876,9.876,0,0,1,69.12,85.758ZM75.162,54.8a23.21,23.21,0,0,0-7.176-1.153c-3.741,0-6.795.831-9.125,2.9-2.255,2-4.09,5.2-4.09,7.666,0,3.384.939,5.748,3.435,7.429a16.021,16.021,0,0,0,4.083,2.13,42.555,42.555,0,0,0,5.967,1.871A26.037,26.037,0,0,1,72.653,77V70.193q-.9-.261-1.887-.493-5.8-1.36-7.58-2.537a3.824,3.824,0,0,1-1.779-3.4,3.646,3.646,0,0,1,1.779-3.321,8.58,8.58,0,0,1,4.559-1.1,17.909,17.909,0,0,1,5.634.941,12.942,12.942,0,0,1,4.533,2.4l3.4-4.654A18.937,18.937,0,0,0,75.162,54.8Z" transform="translate(-44.26 -51.56)"/></g><g transform="translate(21.841 11.555)"><g class="e" transform="matrix(1, 0, 0, 1, -30.84, -13.64)"><path class="b" d="M191.029,151.817a5.312,5.312,0,0,1-3.8,1.871,4.987,4.987,0,0,1-1.506-.212,3.5,3.5,0,0,1-1.581-.992,4.584,4.584,0,0,1-1.1-3.232V133.079h7.345v-4.812h-7.345v-7.179h-6.172v28a10.584,10.584,0,0,0,.939,4.582,8.347,8.347,0,0,0,1.844,2.553,9.408,9.408,0,0,0,6.726,2.645,10.7,10.7,0,0,0,7.192-2.831Z" transform="translate(-146.02 -107.45)"/></g></g></g><g class="d" transform="matrix(1, 0, 0, 1, -9, -2.08)"><ellipse class="c" cx="3.082" cy="2.988" rx="3.082" ry="2.988" transform="translate(38.19 39.11)"/></g></g></g></svg>